<svg width="390" height="14" viewBox="0 0 390 14" fill="none" xmlns="http://www.w3.org/2000/svg">
<rect x="14.7689" width="14" height="14.7688" transform="rotate(90 14.7689 0)" fill="#98EC65" fill-opacity="0.12"/>
<rect x="49.5377" width="14" height="14.7688" transform="rotate(90 49.5377 0)" fill="#5F5F5F" fill-opacity="0.12"/>
<rect x="84.3065" width="14" height="14.7688" transform="rotate(90 84.3065 0)" fill="#5F5F5F" fill-opacity="0.12"/>
<rect x="119.075" width="14" height="14.7688" transform="rotate(90 119.075 0)" fill="#5F5F5F" fill-opacity="0.12"/>
<rect x="153.844" width="14" height="14.7688" transform="rotate(90 153.844 0)" fill="#5F5F5F" fill-opacity="0.12"/>
<rect x="188.613" width="14" height="14.7688" transform="rotate(90 188.613 0)" fill="#5F5F5F" fill-opacity="0.12"/>
<rect x="223.381" width="14" height="14.7688" transform="rotate(90 223.381 0)" fill="#5F5F5F" fill-opacity="0.12"/>
<rect x="258.15" width="14" height="14.7688" transform="rotate(90 258.15 0)" fill="#5F5F5F" fill-opacity="0.12"/>
<rect x="292.919" width="14" height="14.7688" transform="rotate(90 292.919 0)" fill="#5F5F5F" fill-opacity="0.12"/>
<rect x="327.688" width="14" height="14.7688" transform="rotate(90 327.688 0)" fill="#5F5F5F" fill-opacity="0.12"/>
<rect x="362.457" width="14" height="14.7688" transform="rotate(90 362.457 0)" fill="#5F5F5F" fill-opacity="0.12"/>
<rect x="397.225" width="14" height="14.7688" transform="rotate(90 397.225 0)" fill="#5F5F5F" fill-opacity="0.12"/>
</svg>
