<svg width="534" height="236" viewBox="0 0 534 236" fill="none" xmlns="http://www.w3.org/2000/svg">
<rect y="87" width="18.9884" height="18" fill="#5F5F5F" fill-opacity="0.12"/>
<rect y="217" width="17.989" height="19" fill="#5F5F5F" fill-opacity="0.12"/>
<rect y="44" width="17.989" height="18" fill="#5F5F5F" fill-opacity="0.12"/>
<rect width="17.989" height="19" fill="#5F5F5F" fill-opacity="0.12"/>
<rect y="130" width="18.9884" height="18" fill="#5F5F5F" fill-opacity="0.12"/>
<rect y="173" width="17.989" height="19" fill="#5F5F5F" fill-opacity="0.12"/>
<rect x="272.834" width="18" height="17.989" transform="rotate(90 272.834 0)" fill="#5F5F5F" fill-opacity="0.12"/>
<rect x="489.937" width="18" height="17.989" transform="rotate(90 489.937 0)" fill="#5F5F5F" fill-opacity="0.12"/>
<rect x="316.807" width="18" height="18.9884" transform="rotate(90 316.807 0)" fill="#5F5F5F" fill-opacity="0.12"/>
<rect x="61.9884" y="217" width="18" height="18.9884" transform="rotate(90 61.9884 217)" fill="#5F5F5F" fill-opacity="0.12"/>
<rect x="533.91" width="18" height="18.9884" transform="rotate(90 533.91 0)" fill="#98EC65" fill-opacity="0.12"/>
<rect x="235.988" y="217" width="18" height="18.9884" transform="rotate(90 235.988 217)" fill="#98EC65" fill-opacity="0.12"/>
<rect x="186.886" width="19" height="17.989" transform="rotate(90 186.886 0)" fill="#5F5F5F" fill-opacity="0.12"/>
<rect x="403.989" width="19" height="17.989" transform="rotate(90 403.989 0)" fill="#5F5F5F" fill-opacity="0.12"/>
<rect x="149.171" y="217" width="19" height="17.989" transform="rotate(90 149.171 217)" fill="#5F5F5F" fill-opacity="0.12"/>
<rect x="56.9653" width="18" height="18.9884" transform="rotate(90 56.9653 0)" fill="#5F5F5F" fill-opacity="0.12"/>
<rect x="229.86" width="18" height="17.989" transform="rotate(90 229.86 0)" fill="#5F5F5F" fill-opacity="0.12"/>
<rect x="446.963" width="18" height="17.989" transform="rotate(90 446.963 0)" fill="#5F5F5F" fill-opacity="0.12"/>
<rect x="192.144" y="217" width="18" height="17.989" transform="rotate(90 192.144 217)" fill="#5F5F5F" fill-opacity="0.12"/>
<rect x="361" width="19" height="19" transform="rotate(90 361 0)" fill="#5F5F5F" fill-opacity="0.12"/>
<rect x="106.182" y="217" width="19" height="19" transform="rotate(90 106.182 217)" fill="#5F5F5F" fill-opacity="0.12"/>
<rect x="143.912" width="19" height="17.989" transform="rotate(90 143.912 0)" fill="#5F5F5F" fill-opacity="0.12"/>
<rect x="100.938" width="18" height="18.9884" transform="rotate(90 100.938 0)" fill="#5F5F5F" fill-opacity="0.12"/>
</svg>
