<svg width="433" height="14" viewBox="0 0 433 14" fill="none" xmlns="http://www.w3.org/2000/svg">
<rect x="14.844" width="14" height="14.7688" transform="rotate(90 14.844 0)" fill="#5F5F5F" fill-opacity="0.12"/>
<rect x="49.6128" width="14" height="14.7688" transform="rotate(90 49.6128 0)" fill="#5F5F5F" fill-opacity="0.12"/>
<rect x="84.3816" width="14" height="14.7688" transform="rotate(90 84.3816 0)" fill="#5F5F5F" fill-opacity="0.12"/>
<rect x="119.15" width="14" height="14.7688" transform="rotate(90 119.15 0)" fill="#5F5F5F" fill-opacity="0.12"/>
<rect x="153.919" width="14" height="14.7688" transform="rotate(90 153.919 0)" fill="#5F5F5F" fill-opacity="0.12"/>
<rect x="188.688" width="14" height="14.7688" transform="rotate(90 188.688 0)" fill="#5F5F5F" fill-opacity="0.12"/>
<rect x="223.457" width="14" height="14.7688" transform="rotate(90 223.457 0)" fill="#5F5F5F" fill-opacity="0.12"/>
<rect x="258.225" width="14" height="14.7688" transform="rotate(90 258.225 0)" fill="#5F5F5F" fill-opacity="0.12"/>
<rect x="292.994" width="14" height="14.7688" transform="rotate(90 292.994 0)" fill="#5F5F5F" fill-opacity="0.12"/>
<rect x="327.763" width="14" height="14.7688" transform="rotate(90 327.763 0)" fill="#5F5F5F" fill-opacity="0.12"/>
<rect x="362.532" width="14" height="14.7688" transform="rotate(90 362.532 0)" fill="#5F5F5F" fill-opacity="0.12"/>
<rect x="397.301" width="14" height="14.7688" transform="rotate(90 397.301 0)" fill="#5F5F5F" fill-opacity="0.12"/>
<rect x="432.069" width="14" height="14.7688" transform="rotate(90 432.069 0)" fill="#98EC65" fill-opacity="0.12"/>
</svg>
