<svg width="675" height="234" viewBox="0 0 675 234" fill="none" xmlns="http://www.w3.org/2000/svg">
<rect x="586.857" width="18" height="17.989" transform="rotate(90 586.857 0)" fill="#5F5F5F" fill-opacity="0.12"/>
<rect x="586.857" y="215" width="18" height="17.989" transform="rotate(90 586.857 215)" fill="#5F5F5F" fill-opacity="0.12"/>
<rect x="630.831" width="18" height="18.9884" transform="rotate(90 630.831 0)" fill="#5F5F5F" fill-opacity="0.12"/>
<rect x="630.831" y="215" width="18" height="18.9884" transform="rotate(90 630.831 215)" fill="#5F5F5F" fill-opacity="0.12"/>
<rect x="500.91" width="19" height="17.989" transform="rotate(90 500.91 0)" fill="#5F5F5F" fill-opacity="0.12"/>
<rect x="500.91" y="215" width="19" height="17.989" transform="rotate(90 500.91 215)" fill="#5F5F5F" fill-opacity="0.12"/>
<rect x="370.989" width="18" height="18.9884" transform="rotate(90 370.989 0)" fill="#5F5F5F" fill-opacity="0.12"/>
<rect x="326.989" width="18" height="18.9884" transform="rotate(90 326.989 0)" fill="#5F5F5F" fill-opacity="0.12"/>
<rect x="282.989" width="18" height="18.9884" transform="rotate(90 282.989 0)" fill="#5F5F5F" fill-opacity="0.12"/>
<rect x="238.989" width="18" height="18.9884" transform="rotate(90 238.989 0)" fill="#5F5F5F" fill-opacity="0.12"/>
<rect x="194.989" width="18" height="18.9884" transform="rotate(90 194.989 0)" fill="#5F5F5F" fill-opacity="0.12"/>
<rect x="150.989" width="18" height="18.9884" transform="rotate(90 150.989 0)" fill="#5F5F5F" fill-opacity="0.12"/>
<rect x="106.989" width="18" height="18.9884" transform="rotate(90 106.989 0)" fill="#5F5F5F" fill-opacity="0.12"/>
<rect x="62.9885" width="18" height="18.9884" transform="rotate(90 62.9885 0)" fill="#5F5F5F" fill-opacity="0.12"/>
<rect x="18.9885" width="18" height="18.9884" transform="rotate(90 18.9885 0)" fill="#98EC65" fill-opacity="0.12"/>
<rect x="543.884" width="18" height="17.989" transform="rotate(90 543.884 0)" fill="#5F5F5F" fill-opacity="0.12"/>
<rect x="543.884" y="215" width="18" height="17.989" transform="rotate(90 543.884 215)" fill="#5F5F5F" fill-opacity="0.12"/>
<rect x="674.803" width="18" height="18.9884" transform="rotate(90 674.803 0)" fill="#5F5F5F" fill-opacity="0.12"/>
<rect x="457.936" width="19" height="17.989" transform="rotate(90 457.936 0)" fill="#5F5F5F" fill-opacity="0.12"/>
<rect x="457.936" y="215" width="19" height="17.989" transform="rotate(90 457.936 215)" fill="#5F5F5F" fill-opacity="0.12"/>
<rect x="414.962" width="18" height="18.9884" transform="rotate(90 414.962 0)" fill="#5F5F5F" fill-opacity="0.12"/>
<rect x="414.962" y="215" width="18" height="18.9884" transform="rotate(90 414.962 215)" fill="#5F5F5F" fill-opacity="0.12"/>
<rect x="370.989" y="215" width="18" height="18.9884" transform="rotate(90 370.989 215)" fill="#98EC65" fill-opacity="0.12"/>
<rect x="674.803" y="190" width="17.989" height="18" transform="rotate(-180 674.803 190)" fill="#5F5F5F" fill-opacity="0.12"/>
<rect x="674.803" y="104" width="18.9884" height="18" transform="rotate(-180 674.803 104)" fill="#5F5F5F" fill-opacity="0.12"/>
<rect x="674.803" y="147" width="17.989" height="18" transform="rotate(-180 674.803 147)" fill="#5F5F5F" fill-opacity="0.12"/>
<rect x="674.803" y="234" width="17.989" height="19" transform="rotate(-180 674.803 234)" fill="#5F5F5F" fill-opacity="0.12"/>
<rect x="674.803" y="61" width="18.9884" height="18" transform="rotate(-180 674.803 61)" fill="#5F5F5F" fill-opacity="0.12"/>
</svg>
