<svg width="223" height="163" viewBox="0 0 223 163" fill="none" xmlns="http://www.w3.org/2000/svg">
<rect x="179" y="33" width="18" height="19" transform="rotate(-180 179 33)" fill="#5F5F5F" fill-opacity="0.12"/>
<rect x="161" y="163" width="19" height="18" transform="rotate(-90 161 163)" fill="#5F5F5F" fill-opacity="0.12"/>
<rect x="161" y="119" width="18" height="18" transform="rotate(-90 161 119)" fill="#5F5F5F" fill-opacity="0.12"/>
<rect x="205" y="163" width="18" height="18" transform="rotate(-90 205 163)" fill="#5F5F5F" fill-opacity="0.12"/>
<rect x="179" y="76" width="18" height="18" transform="rotate(-180 179 76)" fill="#5F5F5F" fill-opacity="0.12"/>
<rect x="134" y="33" width="19" height="18" transform="rotate(-180 134 33)" fill="#5F5F5F" fill-opacity="0.12"/>
<rect x="90" y="33" width="18" height="18" transform="rotate(-180 90 33)" fill="#5F5F5F" fill-opacity="0.12"/>
<rect x="1.5" y="1.5" width="45" height="42" transform="matrix(-4.37114e-08 1 1 4.37114e-08 -6.55671e-08 6.55671e-08)" stroke="#98EC65" stroke-opacity="0.2" stroke-width="3"/>
</svg>
