<svg width="357" height="155" viewBox="0 0 357 155" fill="none" xmlns="http://www.w3.org/2000/svg">
<path fill-rule="evenodd" clip-rule="evenodd" d="M70.8009 0.271665C69.9452 0.421142 67.1445 0.850888 64.5773 1.22645C54.6972 2.6714 43.0528 7.37744 33.464 13.8012C27.47 17.8166 17.7375 27.5563 13.7251 33.5547C0.685917 53.0465 -3.21195 75.6512 2.67251 97.6543C9.44197 122.968 28.2137 142.861 53.2552 151.256C60.9489 153.836 68.5169 155 77.5729 154.998C98.9331 154.993 117.126 147.443 132.162 132.346C147.523 116.922 154.82 99.2418 154.82 77.4456C154.82 68.4906 153.845 61.9852 151.281 53.8375C142.969 27.4211 119.726 6.72722 92.468 1.47433C87.3683 0.492144 73.8344 -0.259602 70.8009 0.271665ZM270.005 0.59304C262.178 1.60699 253.595 4.24589 245.923 7.99715C223.715 18.8561 208.833 38.1193 203.569 62.8223C202.015 70.1149 202.042 85.3405 203.621 92.7178C206.94 108.215 214.102 121.577 224.821 132.267C239.795 147.2 258.583 155 279.576 155C300.059 155 318.065 147.91 332.792 134.046C347.914 119.809 356.093 101.883 356.906 81.1956C357.494 66.2235 355.381 56.0765 348.994 43.2034C344.646 34.4391 340.617 28.8399 333.86 22.1757C317.37 5.9107 292.873 -2.3691 270.005 0.59304ZM86.782 3.69532C124.484 8.83547 151.749 39.7517 151.837 77.4586C151.885 98.6178 143.904 117.187 128.508 131.731C119.542 140.202 109.956 145.742 98.5404 149.053C89.9884 151.533 85.167 152.068 74.5351 151.718C62.8689 151.333 55.7578 149.666 46.0663 145.042C24.0862 134.557 9.5596 116.018 4.36472 91.8215C2.87042 84.859 2.92145 70.0514 4.46492 62.8223C5.94054 55.9102 8.04725 50.0862 11.5269 43.3018C25.6079 15.8447 56.5295 -0.429632 86.782 3.69532ZM290.498 3.93137C322.499 8.75886 347.632 33.2601 353.134 64.9922C354.604 73.4682 354.029 87.9563 351.904 96.0268C348.264 109.848 342.58 119.656 332.176 130.068C321.805 140.447 312.132 146.073 298.159 149.853C292.563 151.367 291.035 151.508 279.916 151.54C269.107 151.571 267.166 151.414 262.178 150.109C226.784 140.851 203.683 109.758 205.427 73.7217C206.714 47.1166 222.368 23.1442 246.295 11.1362C254.725 6.90597 260.94 5.073 272.447 3.42377C276.316 2.86945 285.096 3.11609 290.498 3.93137ZM36.246 32.2237C26.6491 36.5866 23.9947 49.5824 31.1569 57.1372C35.2334 61.4384 41.9823 63.2627 47.2139 61.4776C52.9372 59.5257 57.3068 54.2635 58.1171 48.3467C58.6157 44.7057 57.0846 39.5144 54.6419 36.5641C50.4845 31.5442 42.0956 29.5642 36.246 32.2237ZM237.716 32.6715C233.656 34.6963 230.988 37.8789 229.722 42.2081C228.491 46.4178 228.935 50.0856 231.173 54.2006C236.25 63.5354 249.175 64.892 256.247 56.832C257.37 55.5521 258.674 53.5827 259.144 52.4554C260.37 49.5201 260.21 43.1025 258.835 40.0756C255.211 32.0904 245.622 28.729 237.716 32.6715Z" fill="#565163"/>
</svg>
