<svg width="145" height="123" viewBox="0 0 145 123" fill="none" xmlns="http://www.w3.org/2000/svg">
<rect x="72" y="51" width="15" height="15" transform="rotate(-90 72 51)" fill="#5F5F5F" fill-opacity="0.12"/>
<rect x="107" y="123" width="16" height="16" transform="rotate(-90 107 123)" fill="#5F5F5F" fill-opacity="0.12"/>
<rect x="72" y="87" width="15" height="15" transform="rotate(-90 72 87)" fill="#5F5F5F" fill-opacity="0.12"/>
<rect x="107" y="87" width="15" height="16" transform="rotate(-90 107 87)" fill="#5F5F5F" fill-opacity="0.12"/>
<rect x="72" y="123" width="16" height="15" transform="rotate(-90 72 123)" fill="#5F5F5F" fill-opacity="0.12"/>
<rect x="36" y="36" width="15" height="15" fill="#5F5F5F" fill-opacity="0.12"/>
<rect x="36" width="15" height="16" fill="#5F5F5F" fill-opacity="0.12"/>
<rect y="72" width="16" height="15" fill="#5F5F5F" fill-opacity="0.12"/>
<rect x="36" y="107" width="15" height="16" fill="#5F5F5F" fill-opacity="0.12"/>
<rect x="36" y="72" width="15" height="15" fill="#5F5F5F" fill-opacity="0.12"/>
<rect x="107" y="87" width="15" height="16" transform="rotate(-90 107 87)" fill="#98EC65" fill-opacity="0.12"/>
<rect x="36" width="15" height="16" fill="#98EC65" fill-opacity="0.12"/>
</svg>
