<svg width="323" height="149" viewBox="0 0 323 149" fill="none" xmlns="http://www.w3.org/2000/svg">
<rect x="217" y="43" width="18" height="18" fill="#5F5F5F" fill-opacity="0.12"/>
<rect x="44" y="86" width="19" height="19" fill="#5F5F5F" fill-opacity="0.12"/>
<rect x="88" y="87" width="18" height="18" fill="#5F5F5F" fill-opacity="0.12"/>
<rect x="131" y="130" width="18" height="19" fill="#5F5F5F" fill-opacity="0.12"/>
<rect y="43" width="19" height="18" fill="#5F5F5F" fill-opacity="0.12"/>
<rect x="235" width="18" height="18" transform="rotate(90 235 0)" fill="#5F5F5F" fill-opacity="0.12"/>
<rect x="279" width="18" height="19" transform="rotate(90 279 0)" fill="#5F5F5F" fill-opacity="0.12"/>
<rect x="149" width="19" height="18" transform="rotate(90 149 0)" fill="#5F5F5F" fill-opacity="0.12"/>
<rect x="19" width="18" height="19" transform="rotate(90 19 0)" fill="#5F5F5F" fill-opacity="0.12"/>
<rect x="149" y="44" width="18" height="18" transform="rotate(90 149 44)" fill="#5F5F5F" fill-opacity="0.12"/>
<rect x="174" y="43" width="18" height="18" fill="#5F5F5F" fill-opacity="0.12"/>
<rect y="86" width="19" height="19" fill="#98EC65" fill-opacity="0.12"/>
<rect x="131" y="87" width="18" height="18" fill="#5F5F5F" fill-opacity="0.12"/>
<rect x="88" y="130" width="18" height="19" fill="#5F5F5F" fill-opacity="0.12"/>
<rect x="44" y="43" width="19" height="18" fill="#5F5F5F" fill-opacity="0.12"/>
<rect x="192" width="18" height="18" transform="rotate(90 192 0)" fill="#5F5F5F" fill-opacity="0.12"/>
<rect x="323" width="18" height="19" transform="rotate(90 323 0)" fill="#5F5F5F" fill-opacity="0.12"/>
<rect x="106" width="19" height="18" transform="rotate(90 106 0)" fill="#5F5F5F" fill-opacity="0.12"/>
<rect x="63" width="18" height="19" transform="rotate(90 63 0)" fill="#5F5F5F" fill-opacity="0.12"/>
<rect x="106" y="44" width="18" height="18" transform="rotate(90 106 44)" fill="#98EC65" fill-opacity="0.12"/>
</svg>
