<svg width="149" height="149" viewBox="0 0 149 149" fill="none" xmlns="http://www.w3.org/2000/svg">
<rect x="87" y="87" width="18" height="18" fill="#5F5F5F" fill-opacity="0.12"/>
<rect y="130" width="19" height="19" fill="#5F5F5F" fill-opacity="0.12"/>
<rect x="44" y="87" width="18" height="18" fill="#5F5F5F" fill-opacity="0.12"/>
<rect x="44" y="130" width="18" height="19" fill="#5F5F5F" fill-opacity="0.12"/>
<rect y="87" width="19" height="18" fill="#5F5F5F" fill-opacity="0.12"/>
<rect x="105" y="44" width="18" height="18" transform="rotate(90 105 44)" fill="#5F5F5F" fill-opacity="0.12"/>
<rect x="149" y="44" width="18" height="19" transform="rotate(90 149 44)" fill="#5F5F5F" fill-opacity="0.12"/>
<rect x="62" width="19" height="18" transform="rotate(90 62 0)" fill="#5F5F5F" fill-opacity="0.12"/>
<rect x="19" y="44" width="18" height="19" transform="rotate(90 19 44)" fill="#5F5F5F" fill-opacity="0.12"/>
<rect x="62" y="44" width="18" height="18" transform="rotate(90 62 44)" fill="#5F5F5F" fill-opacity="0.12"/>
<rect y="130" width="19" height="19" fill="#98EC65" fill-opacity="0.12"/>
<rect x="62" y="44" width="18" height="18" transform="rotate(90 62 44)" fill="#98EC65" fill-opacity="0.12"/>
</svg>
